<?xml version="1.0" encoding="UTF-8" standalone="no"?>
<svg
   xmlns:dc="http://purl.org/dc/elements/1.1/"
   xmlns:cc="http://creativecommons.org/ns#"
   xmlns:rdf="http://www.w3.org/1999/02/22-rdf-syntax-ns#"
   xmlns:svg="http://www.w3.org/2000/svg"
   xmlns="http://www.w3.org/2000/svg"
   xmlns:xlink="http://www.w3.org/1999/xlink"
   xmlns:sodipodi="http://sodipodi.sourceforge.net/DTD/sodipodi-0.dtd"
   xmlns:inkscape="http://www.inkscape.org/namespaces/inkscape"
   version="1.1"
   width="350"
   height="350"
   viewBox="-10 0 360 350"
   xml:space="preserve"
   id="svg905"
   sodipodi:docname="vk.svg"
   inkscape:version="1.0.1 (3bc2e813f5, 2020-09-07)"><metadata
   id="metadata909"><rdf:RDF><cc:Work
       rdf:about=""><dc:format>image/svg+xml</dc:format><dc:type
         rdf:resource="http://purl.org/dc/dcmitype/StillImage" /><dc:title></dc:title></cc:Work></rdf:RDF></metadata><sodipodi:namedview
   pagecolor="#ffffff"
   bordercolor="#666666"
   borderopacity="1"
   objecttolerance="10"
   gridtolerance="10"
   guidetolerance="10"
   inkscape:pageopacity="0"
   inkscape:pageshadow="2"
   inkscape:window-width="1920"
   inkscape:window-height="1080"
   id="namedview907"
   showgrid="false"
   inkscape:zoom="2.5228571"
   inkscape:cx="175"
   inkscape:cy="175"
   inkscape:window-x="0"
   inkscape:window-y="0"
   inkscape:window-maximized="0"
   inkscape:current-layer="icon"
   viewbox-x="-10"
   viewbox-width="360" />
<desc
   id="desc898">Created with Fabric.js 1.7.22</desc>
<defs
   id="defs900">
</defs>
<g
   id="icon"
   style="opacity:1;fill:none;fill-rule:nonzero;stroke:none;stroke-width:1;stroke-linecap:butt;stroke-linejoin:miter;stroke-miterlimit:10;stroke-dasharray:none"
   transform="matrix(3.89,0,0,3.89,-1.9444444,-1.9444444)">
	<path
   style="opacity:1;fill:#ffffff;fill-rule:nonzero;stroke:none;stroke-width:1;stroke-linecap:butt;stroke-linejoin:miter;stroke-miterlimit:10;stroke-dasharray:none"
   sodipodi:type="inkscape:offset"
   inkscape:radius="0"
   inkscape:original="M 5.0410156 16.148438 C 4.1581702 16.144825 3.2510239 16.180278 2.3320312 16.365234 A 0.67796822 0.67796822 0 0 0 2.3222656 16.367188 C 0.25806249 16.812097 -1.5055816 18.539833 -1.640625 20.755859 C -1.8693278 23.212427 -0.9931556 25.47269 -0.4296875 27.568359 A 0.67796822 0.67796822 0 0 0 -0.421875 27.595703 C 2.645149 37.3624 7.8516356 46.261815 13.623047 54.578125 C 17.817907 60.638291 23.200273 66.005269 29.746094 69.570312 C 35.600163 72.787586 42.455399 74.489947 49.177734 73.599609 C 51.321777 73.393718 53.722474 72.3919 54.669922 70.130859 A 0.67796822 0.67796822 0 0 0 54.6875 70.085938 C 55.507018 67.652973 55.021004 65.199932 55.144531 63.027344 A 0.67796822 0.67796822 0 0 0 55.144531 63.005859 C 55.186933 61.37017 55.12403 59.774324 55.236328 58.277344 C 56.751519 58.596463 58.122328 59.736076 59.542969 60.828125 C 63.458561 63.935594 66.544056 68.031749 70.246094 71.625 A 0.67796822 0.67796822 0 0 0 70.265625 71.642578 C 71.967114 73.170965 74.257835 74.046697 76.587891 73.833984 L 76.533203 73.835938 C 79.943943 73.796965 83.399016 73.937525 86.871094 73.740234 A 0.67796822 0.67796822 0 0 0 86.917969 73.734375 C 89.267461 73.435019 91.519724 71.61716 91.664062 69.058594 C 91.942246 65.989414 90.125166 63.416713 88.626953 61.251953 A 0.67796822 0.67796822 0 0 0 88.621094 61.242188 C 86.017765 57.630386 83.064623 54.294153 80.003906 51.103516 A 0.67796822 0.67796822 0 0 0 79.996094 51.09375 C 78.552378 49.645211 77.0547 48.324307 75.939453 46.78125 C 76.11107 46.229926 76.663244 45.642988 77.15625 44.771484 C 81.101215 39.023799 85.041118 33.194382 88.15625 26.878906 A 0.67796822 0.67796822 0 0 0 88.162109 26.867188 C 89.095871 24.881338 90.131754 22.601276 89.822266 20.126953 A 0.67796822 0.67796822 0 0 0 89.816406 20.085938 C 89.389334 17.791606 87.225068 16.275668 85.007812 16.232422 C 82.511499 16.058004 80.057166 16.230102 77.664062 16.166016 A 0.67796822 0.67796822 0 0 0 77.626953 16.166016 C 76.728898 16.190763 75.777388 16.138746 74.798828 16.154297 C 73.820587 16.169843 72.812999 16.253932 71.8125 16.576172 A 0.67796822 0.67796822 0 0 0 71.794922 16.582031 C 69.61228 17.350874 68.134781 19.261288 67.423828 21.306641 L 67.445312 21.251953 C 64.600332 27.590413 61.260359 33.75839 56.785156 39.029297 C 56.785156 39.029297 56.783203 39.03125 56.783203 39.03125 C 56.296068 39.585934 55.718964 40.012614 55.171875 40.484375 C 55.133887 36.701763 55.16636 32.858873 55.146484 29.041016 A 0.67796822 0.67796822 0 0 0 55.146484 29.037109 C 55.115202 26.345411 55.202741 23.61706 55.0625 20.873047 A 0.67796822 0.67796822 0 0 0 55.058594 20.830078 C 54.817149 18.741417 53.35861 16.632436 51.0625 16.314453 C 49.867521 16.081815 48.707291 16.151716 47.626953 16.175781 L 47.613281 16.175781 C 42.994444 16.1876 38.352042 16.091441 33.703125 16.232422 A 0.67796822 0.67796822 0 0 0 33.642578 16.236328 C 30.600963 16.603089 28.481382 20.039402 29.767578 22.898438 C 30.18352 23.924797 30.85545 24.724922 31.441406 25.476562 C 32.030874 26.232708 32.527674 26.932805 32.732422 27.730469 A 0.67796822 0.67796822 0 0 0 32.742188 27.765625 C 33.549841 30.325514 33.108969 33.181073 33.228516 36.113281 C 33.2132 38.956283 33.233944 41.778396 33.177734 44.591797 C 31.438934 42.907768 30.085992 40.764555 28.691406 38.640625 C 25.159802 32.975131 22.531741 26.778472 20.3125 20.453125 A 0.67796822 0.67796822 0 0 0 20.302734 20.427734 C 19.434821 18.245547 17.443157 16.308716 14.882812 16.238281 C 12.420799 16.051997 10.002154 16.228506 7.6484375 16.162109 A 0.67796822 0.67796822 0 0 0 7.6035156 16.162109 C 6.7822752 16.193873 5.923861 16.15205 5.0410156 16.148438 z M 35.242188 21.552734 C 40.061625 21.623581 44.870772 21.524566 49.654297 21.611328 C 49.681738 21.71709 49.726894 21.778852 49.728516 21.957031 C 49.731401 22.274002 49.683684 22.675309 49.740234 23.130859 L 49.734375 23.050781 C 49.762429 29.517907 49.67158 35.998405 49.789062 42.486328 A 0.67796822 0.67796822 0 0 0 49.791016 42.535156 C 49.884019 43.571174 50.289539 44.622429 50.974609 45.458984 C 51.659299 46.295075 52.666375 46.91869 53.871094 46.933594 C 53.871094 46.933594 53.873047 46.933594 53.873047 46.933594 C 56.620118 46.9839 58.564292 44.929047 60.132812 43.371094 A 0.67796822 0.67796822 0 0 0 60.152344 43.351562 C 64.0913 39.101614 67.046172 34.102704 69.716797 29.074219 C 70.938385 26.76963 71.944398 24.390002 73.052734 22.103516 C 73.379759 21.723835 73.784541 21.601144 74.384766 21.566406 C 75.001933 21.530688 75.746848 21.626659 76.505859 21.574219 L 76.453125 21.576172 C 79.123603 21.600495 81.76921 21.536097 84.382812 21.644531 C 84.347473 21.749723 84.301116 21.841866 84.3125 22.033203 L 84.335938 21.806641 C 83.434303 24.969345 81.539249 27.811914 79.839844 30.792969 C 77.148828 35.273514 74.116133 39.565984 71.212891 43.964844 A 0.67796822 0.67796822 0 0 0 71.195312 43.994141 C 70.226512 45.637955 70.046811 47.842249 71.244141 49.513672 C 72.889252 52.152429 75.364032 53.916971 77.216797 56.017578 A 0.67796822 0.67796822 0 0 0 77.226562 56.029297 C 80.167847 59.210748 83.024562 62.471035 85.349609 66.072266 C 85.777172 66.851452 86.131073 67.606544 86.214844 68.306641 C 86.151284 68.338029 86.134739 68.38553 85.947266 68.394531 C 85.635222 68.409514 85.19692 68.343665 84.6875 68.439453 L 84.816406 68.427734 C 81.837805 68.408828 78.867394 68.447807 75.910156 68.410156 A 0.67796822 0.67796822 0 0 0 75.876953 68.410156 C 75.11661 68.439198 74.50672 68.13177 73.880859 67.613281 C 73.254999 67.094793 72.662689 66.374564 72.035156 65.720703 L 72.046875 65.730469 C 68.097856 61.433828 64.145897 56.801518 58.853516 53.800781 A 0.67796822 0.67796822 0 0 0 58.832031 53.789062 C 56.698845 52.676648 53.831012 52.172023 51.587891 53.689453 A 0.67796822 0.67796822 0 0 0 51.548828 53.716797 C 50.598485 54.46206 50.130986 55.506262 49.917969 56.544922 C 49.704951 57.583582 49.721218 58.643511 49.734375 59.564453 C 49.709097 62.356226 49.782249 65.129816 49.679688 67.869141 C 49.590809 67.991734 49.492537 68.075573 49.210938 68.138672 C 48.902755 68.207727 48.478417 68.229975 48.039062 68.314453 C 48.036465 68.314719 48.033849 68.314188 48.03125 68.314453 C 44.965823 68.627332 41.848487 68.300389 38.917969 67.494141 A 0.67796822 0.67796822 0 0 0 38.916016 67.494141 C 31.28154 65.414447 24.770968 60.21695 19.916016 53.996094 C 16.262287 49.124063 12.972431 43.970964 10.111328 38.595703 L 10.107422 38.589844 C 7.5851721 33.731287 5.3470695 28.703427 4.0371094 23.427734 C 3.9328293 22.727986 3.8344954 22.183471 3.8144531 21.689453 C 4.5392861 21.565421 5.4212812 21.647563 6.4414062 21.578125 L 6.4453125 21.578125 C 9.1729265 21.588938 11.881215 21.523537 14.558594 21.644531 C 14.883465 21.768159 15.078123 21.994475 15.271484 22.421875 C 15.473204 22.86775 15.618549 23.460217 15.875 24.033203 C 18.478076 31.281825 21.765402 38.364823 26.222656 44.716797 A 0.67796822 0.67796822 0 0 0 26.228516 44.726562 C 27.877958 46.99279 29.760184 49.463411 32.570312 50.724609 A 0.67796822 0.67796822 0 0 0 32.603516 50.738281 C 33.67278 51.152837 34.872975 51.108532 35.914062 50.679688 C 36.950984 50.252558 37.845976 49.404851 38.177734 48.216797 C 38.962618 45.827054 38.531272 43.42217 38.638672 41.275391 A 0.67796822 0.67796822 0 0 0 38.638672 41.236328 C 38.603561 37.271259 38.728036 33.274335 38.552734 29.261719 A 0.67796822 0.67796822 0 0 0 38.550781 29.228516 C 38.286573 26.392656 37.088666 23.705453 35.242188 21.552734 z "
   xlink:href="#path902"
   id="path932"
   inkscape:href="#path902"
   d="m 5.0410156,16.148438 c -0.8828454,-0.0036 -1.7899917,0.03184 -2.7089844,0.216796 a 0.67796822,0.67796822 0 0 0 -0.00977,0.002 c -2.06420311,0.444909 -3.8278472,2.172645 -3.9628906,4.388671 -0.2287028,2.456568 0.6474694,4.716831 1.2109375,6.8125 a 0.67796822,0.67796822 0 0 0 0.007813,0.02734 c 3.067024,9.766697 8.2735106,18.666112 14.044922,26.982422 4.19486,6.060166 9.577226,11.427144 16.123047,14.992187 5.854069,3.217274 12.709305,4.919635 19.43164,4.029297 2.144043,-0.205891 4.54474,-1.207709 5.492188,-3.46875 a 0.67796822,0.67796822 0 0 0 0.01758,-0.04492 c 0.819518,-2.432965 0.333504,-4.886006 0.457031,-7.058594 a 0.67796822,0.67796822 0 0 0 0,-0.02148 c 0.0424,-1.635689 -0.0205,-3.231535 0.0918,-4.728515 1.515191,0.319119 2.886,1.458732 4.306641,2.550781 3.915592,3.107469 7.001087,7.203624 10.703125,10.796875 a 0.67796822,0.67796822 0 0 0 0.01953,0.01758 c 1.701489,1.528387 3.99221,2.404119 6.322266,2.191406 l -0.05469,0.002 c 3.41074,-0.03897 6.865813,0.101587 10.337891,-0.0957 a 0.67796822,0.67796822 0 0 0 0.04687,-0.0059 c 2.349492,-0.299356 4.601755,-2.117215 4.746093,-4.675781 0.278184,-3.06918 -1.538896,-5.641881 -3.037109,-7.806641 a 0.67796822,0.67796822 0 0 0 -0.0059,-0.0098 C 86.017765,57.630386 83.064623,54.294153 80.003906,51.103516 a 0.67796822,0.67796822 0 0 0 -0.0078,-0.0098 c -1.443716,-1.448539 -2.941394,-2.769443 -4.056641,-4.3125 0.171617,-0.551324 0.723791,-1.138262 1.216797,-2.009766 3.944965,-5.747685 7.884868,-11.577102 11,-17.892578 a 0.67796822,0.67796822 0 0 0 0.0059,-0.01172 c 0.933762,-1.98585 1.969645,-4.265912 1.660157,-6.740235 a 0.67796822,0.67796822 0 0 0 -0.0059,-0.04102 c -0.427072,-2.294332 -2.591338,-3.81027 -4.808594,-3.853516 -2.496313,-0.174418 -4.950646,-0.0023 -7.34375,-0.06641 a 0.67796822,0.67796822 0 0 0 -0.03711,0 c -0.898055,0.02475 -1.849565,-0.02727 -2.828125,-0.01172 -0.978241,0.01555 -1.985829,0.09963 -2.986328,0.421875 a 0.67796822,0.67796822 0 0 0 -0.01758,0.0059 c -2.182642,0.768843 -3.660141,2.679257 -4.371094,4.72461 l 0.02148,-0.05469 c -2.84498,6.33846 -6.184953,12.506437 -10.660156,17.777344 0,0 -0.002,0.002 -0.002,0.002 -0.487135,0.554684 -1.064239,0.981364 -1.611328,1.453125 -0.03799,-3.782612 -0.0055,-7.625502 -0.02539,-11.443359 a 0.67796822,0.67796822 0 0 0 0,-0.0039 c -0.03128,-2.691698 0.05626,-5.420049 -0.08398,-8.164062 a 0.67796822,0.67796822 0 0 0 -0.0039,-0.04297 C 54.817149,18.741417 53.35861,16.632436 51.0625,16.314453 49.867521,16.081815 48.707291,16.151716 47.626953,16.175781 h -0.01367 c -4.618837,0.01182 -9.261239,-0.08434 -13.910156,0.05664 a 0.67796822,0.67796822 0 0 0 -0.06055,0.0039 c -3.041615,0.366761 -5.161196,3.803074 -3.875,6.66211 0.415942,1.026359 1.087872,1.826484 1.673828,2.578124 0.589468,0.756146 1.086268,1.456243 1.291016,2.253907 a 0.67796822,0.67796822 0 0 0 0.0098,0.03516 c 0.807653,2.559889 0.366781,5.415448 0.486328,8.347656 -0.01532,2.843002 0.0054,5.665115 -0.05078,8.478516 -1.7388,-1.684029 -3.091742,-3.827242 -4.486328,-5.951172 -3.531604,-5.665494 -6.159665,-11.862153 -8.378906,-18.1875 a 0.67796822,0.67796822 0 0 0 -0.0098,-0.02539 c -0.867913,-2.182187 -2.859577,-4.119018 -5.419922,-4.189453 -2.462013,-0.186284 -4.880658,-0.0098 -7.2343745,-0.07617 a 0.67796822,0.67796822 0 0 0 -0.044922,0 c -0.8212404,0.03176 -1.6796546,-0.01006 -2.5625,-0.01367 z m 30.2011724,5.404296 c 4.819437,0.07085 9.628584,-0.02817 14.412109,0.05859 0.02744,0.105762 0.0726,0.167524 0.07422,0.345703 0.0029,0.316971 -0.04483,0.718278 0.01172,1.173828 l -0.0059,-0.08008 c 0.02805,6.467126 -0.0628,12.947624 0.05469,19.435547 a 0.67796822,0.67796822 0 0 0 0.002,0.04883 c 0.093,1.036018 0.498523,2.087273 1.183593,2.923828 0.68469,0.836091 1.691766,1.459706 2.896485,1.47461 0,0 0.002,0 0.002,0 2.747071,0.05031 4.691245,-2.004547 6.259765,-3.5625 a 0.67796822,0.67796822 0 0 0 0.01953,-0.01953 c 3.938956,-4.249948 6.893828,-9.248858 9.564453,-14.277343 1.221588,-2.304589 2.227601,-4.684217 3.335937,-6.970703 0.327025,-0.379681 0.731807,-0.502372 1.332032,-0.53711 0.617167,-0.03572 1.362082,0.06025 2.121093,0.0078 l -0.05273,0.002 c 2.670478,0.02432 5.316085,-0.04007 7.929687,0.06836 -0.03534,0.105192 -0.0817,0.197335 -0.07031,0.388672 l 0.02344,-0.226562 c -0.901635,3.162704 -2.796689,6.005273 -4.496094,8.986328 -2.691016,4.480545 -5.723711,8.773015 -8.626953,13.171875 a 0.67796822,0.67796822 0 0 0 -0.01758,0.0293 c -0.9688,1.643814 -1.148501,3.848108 0.04883,5.519531 1.645111,2.638757 4.119891,4.403299 5.972656,6.503906 a 0.67796822,0.67796822 0 0 0 0.0098,0.01172 c 2.941285,3.181451 5.798,6.441738 8.123047,10.042969 0.427563,0.779186 0.781464,1.534278 0.865235,2.234375 -0.06356,0.03139 -0.08011,0.07889 -0.267578,0.08789 -0.312044,0.01498 -0.750346,-0.05087 -1.259766,0.04492 l 0.128906,-0.01172 c -2.978601,-0.01891 -5.949012,0.02007 -8.90625,-0.01758 a 0.67796822,0.67796822 0 0 0 -0.0332,0 c -0.760343,0.02904 -1.370233,-0.278386 -1.996094,-0.796875 -0.62586,-0.518488 -1.21817,-1.238717 -1.845703,-1.892578 l 0.01172,0.0098 C 68.097856,61.433828 64.145897,56.801518 58.853516,53.800781 a 0.67796822,0.67796822 0 0 0 -0.02148,-0.01172 c -2.133186,-1.112414 -5.001019,-1.617039 -7.24414,-0.09961 a 0.67796822,0.67796822 0 0 0 -0.03906,0.02734 c -0.950343,0.745263 -1.417842,1.789465 -1.630859,2.828125 -0.213018,1.03866 -0.196751,2.098589 -0.183594,3.019531 -0.02528,2.791773 0.04787,5.565363 -0.05469,8.304688 -0.08888,0.122593 -0.187151,0.206432 -0.46875,0.269531 -0.308183,0.06906 -0.732521,0.0913 -1.171876,0.175781 -0.0026,2.66e-4 -0.0052,-2.65e-4 -0.0078,0 -3.065427,0.312879 -6.182763,-0.01406 -9.113281,-0.820312 a 0.67796822,0.67796822 0 0 0 -0.002,0 c -7.634476,-2.079694 -14.145048,-7.277191 -19,-13.498047 -3.653729,-4.872031 -6.943585,-10.02513 -9.804688,-15.400391 l -0.0039,-0.0059 C 7.5851721,33.731287 5.3470695,28.703427 4.0371094,23.427734 3.9328293,22.727986 3.8344954,22.183471 3.8144531,21.689453 c 0.724833,-0.124032 1.6068281,-0.04189 2.6269531,-0.111328 h 0.00391 c 2.727614,0.01081 5.4359025,-0.05459 8.1132815,0.06641 0.324871,0.123628 0.519529,0.349944 0.71289,0.777344 0.20172,0.445875 0.347065,1.038342 0.603516,1.611328 2.603076,7.248622 5.890402,14.33162 10.347656,20.683594 a 0.67796822,0.67796822 0 0 0 0.0059,0.0098 c 1.649442,2.266228 3.531668,4.736849 6.341796,5.998047 a 0.67796822,0.67796822 0 0 0 0.0332,0.01367 c 1.069264,0.414556 2.269459,0.370251 3.310546,-0.05859 1.036922,-0.42713 1.931914,-1.274837 2.263672,-2.462891 0.784884,-2.389743 0.353538,-4.794627 0.460938,-6.941406 a 0.67796822,0.67796822 0 0 0 0,-0.03906 c -0.03511,-3.965069 0.08936,-7.961993 -0.08594,-11.974609 a 0.67796822,0.67796822 0 0 0 -0.002,-0.0332 c -0.264208,-2.83586 -1.462115,-5.523063 -3.308593,-7.675782 z" /><path
   id="path902"
   style="opacity:1;fill:#ffffff;fill-rule:nonzero;stroke:none;stroke-width:1;stroke-linecap:butt;stroke-linejoin:miter;stroke-miterlimit:10;stroke-dasharray:none"
   sodipodi:type="inkscape:offset"
   inkscape:radius="0.67790043"
   inkscape:original="M 74.810547 16.832031 C 73.864312 16.847068 72.925119 16.929032 72.019531 17.220703 C 70.082418 17.903057 68.722428 19.636356 68.064453 21.529297 C 65.205268 27.899404 61.837984 34.127371 57.300781 39.470703 C 56.470438 40.417189 55.553631 41.301408 54.498047 41.994141 C 54.426277 37.726774 54.49118 33.353379 54.46875 29.044922 C 54.43724 26.33365 54.523096 23.614826 54.384766 20.908203 C 54.172656 19.073309 52.88165 17.235386 50.953125 16.978516 C 49.858155 16.761894 48.737075 16.829237 47.628906 16.853516 C 42.995047 16.865586 38.355039 16.769736 33.724609 16.910156 C 31.158755 17.219549 29.29741 20.227802 30.386719 22.630859 C 31.113315 24.442166 32.897887 25.650482 33.388672 27.5625 C 34.258734 30.320196 33.790507 33.247032 33.90625 36.085938 C 33.88763 39.429125 33.968056 42.773234 33.847656 46.115234 C 31.394876 44.246224 29.783076 41.5393 28.115234 39 C 24.546139 33.274362 21.900653 27.030263 19.671875 20.677734 C 18.884374 18.697726 17.080797 16.971657 14.857422 16.914062 C 12.453558 16.729499 10.0377 16.907794 7.6289062 16.839844 C 5.911392 16.906274 4.1594469 16.688241 2.4648438 17.029297 C 0.67888029 17.414236 -0.85538467 18.930354 -0.96679688 20.802734 C -1.1820785 23.061587 -0.35260626 25.245778 0.22460938 27.392578 C 3.2611614 37.062239 8.4286097 45.904395 14.179688 54.191406 C 18.326636 60.182355 23.638534 65.471676 30.070312 68.974609 C 35.819643 72.134842 42.541645 73.797751 49.095703 72.927734 C 51.082284 72.741258 53.228827 71.816714 54.044922 69.869141 C 54.791022 67.654139 54.336682 65.276727 54.466797 62.988281 C 54.514267 61.157085 54.343018 59.240121 54.578125 57.464844 C 56.696866 57.516834 58.363712 59.066229 59.957031 60.291016 C 63.966467 63.470772 67.065228 67.592511 70.71875 71.138672 C 72.290258 72.550302 74.404649 73.351807 76.525391 73.158203 C 79.959511 73.118963 83.403777 73.2573 86.832031 73.0625 C 88.893279 72.79987 90.871567 71.183261 90.988281 69.009766 C 91.244971 66.240562 89.570006 63.805572 88.070312 61.638672 C 85.493308 58.063393 82.563567 54.749586 79.515625 51.572266 C 78.01827 50.069908 76.363487 48.674833 75.166016 46.912109 C 75.272187 45.954742 76.105367 45.252495 76.566406 44.4375 C 80.520369 38.677213 84.452254 32.855976 87.548828 26.578125 C 88.477543 24.603008 89.429646 22.443552 89.150391 20.210938 C 88.790602 18.278067 86.899324 16.941677 84.986328 16.908203 C 82.544318 16.735052 80.092762 16.90926 77.646484 16.84375 C 76.710413 16.869545 75.756782 16.816994 74.810547 16.832031 z M 35.019531 20.875 C 40.057313 20.9553 45.103514 20.830137 50.140625 20.935547 C 50.571523 21.51305 50.326976 22.361068 50.412109 23.046875 C 50.440199 29.522287 50.349577 36.001196 50.466797 42.474609 C 50.627929 44.269542 51.918052 46.232684 53.880859 46.255859 C 56.276312 46.302439 58.078811 44.455496 59.654297 42.890625 C 63.52781 38.711287 66.456532 33.765573 69.117188 28.755859 C 70.339242 26.450391 71.356317 24.038653 72.496094 21.697266 C 73.459802 20.517312 75.141314 20.989476 76.458984 20.898438 C 79.292623 20.924247 82.135558 20.822533 84.962891 20.970703 C 85.469479 21.087838 84.969451 21.675713 84.988281 21.992188 C 84.047992 25.290481 82.112498 28.176962 80.429688 31.128906 C 77.71932 35.643198 74.677479 39.946699 71.779297 44.337891 C 70.923992 45.789131 70.781115 47.723935 71.802734 49.134766 C 73.354279 51.636337 75.796744 53.382606 77.724609 55.568359 C 80.67735 58.762202 83.566986 62.054436 85.929688 65.716797 C 86.418455 66.60678 86.978741 67.58331 86.960938 68.619141 C 86.510375 69.309596 85.508966 68.97451 84.8125 69.105469 C 81.842714 69.086619 78.871285 69.125691 75.902344 69.087891 C 73.968885 69.161741 72.745792 67.438671 71.546875 66.189453 C 67.586836 61.880822 63.676393 57.314523 58.519531 54.390625 C 56.534744 53.355598 53.921438 52.927722 51.966797 54.25 C 50.374153 55.498958 50.385865 57.717719 50.412109 59.554688 C 50.385779 62.417023 50.474269 65.287695 50.355469 68.144531 C 49.939685 68.927572 48.863483 68.828694 48.107422 68.988281 C 44.945976 69.312088 41.744613 68.975544 38.738281 68.148438 C 30.92233 66.019309 24.303867 60.722121 19.380859 54.414062 C 15.701805 49.509453 12.39066 44.321441 9.5097656 38.908203 C 6.9696568 34.015853 4.6999747 28.929581 3.3710938 23.564453 C 3.256658 22.766319 2.944402 21.908668 3.0878906 21.117188 C 4.1356036 20.698618 5.3342961 20.982041 6.4433594 20.900391 C 9.2094474 20.911431 11.982571 20.83634 14.744141 20.96875 C 15.903163 21.358083 16.057212 22.779632 16.494141 23.755859 C 19.086105 30.982922 22.356159 38.027552 26.777344 44.328125 C 28.41837 46.582789 30.239476 48.934906 32.847656 50.105469 C 34.627167 50.795389 36.996901 49.970063 37.53125 48.025391 C 38.256473 45.837696 37.847977 43.500135 37.960938 41.242188 C 37.925668 37.259138 38.04883 33.269945 37.875 29.291016 C 37.611054 26.457968 36.384476 23.749881 34.464844 21.654297 C 34.335628 21.47402 33.903713 20.967167 34.396484 20.945312 C 34.602248 20.902303 34.809511 20.88055 35.019531 20.875 z "
   d="m 5.0410156,16.148438 c -0.8828454,-0.0036 -1.7899918,0.03184 -2.7089844,0.216796 a 0.67796822,0.67796822 0 0 0 -0.00977,0.002 c -2.06420313,0.444909 -3.8278472,2.172645 -3.9628906,4.388671 -0.2287028,2.456568 0.6474694,4.716831 1.2109375,6.8125 a 0.67796822,0.67796822 0 0 0 0.007813,0.02734 c 3.067024,9.766697 8.2735107,18.666112 14.044922,26.982422 4.19486,6.060166 9.577226,11.427144 16.123047,14.992187 5.854069,3.217273 12.709305,4.919635 19.43164,4.029297 2.144043,-0.205891 4.54474,-1.207709 5.492188,-3.46875 a 0.67796822,0.67796822 0 0 0 0.01758,-0.04492 c 0.819518,-2.432965 0.333504,-4.886006 0.457031,-7.058594 a 0.67796822,0.67796822 0 0 0 0,-0.02148 c 0.0424,-1.635689 -0.0205,-3.231535 0.0918,-4.728515 1.515191,0.319119 2.886,1.458732 4.306641,2.550781 3.915592,3.107469 7.001087,7.203624 10.703125,10.796875 a 0.67796822,0.67796822 0 0 0 0.01953,0.01758 c 1.701489,1.528387 3.99221,2.404119 6.322266,2.191406 l -0.05469,0.002 c 3.41074,-0.03897 6.865813,0.101587 10.337891,-0.0957 a 0.67796822,0.67796822 0 0 0 0.04687,-0.0059 c 2.349492,-0.299356 4.601754,-2.117215 4.746093,-4.675781 0.278184,-3.06918 -1.538896,-5.641881 -3.037109,-7.806641 a 0.67796822,0.67796822 0 0 0 -0.0059,-0.0098 C 86.017765,57.630386 83.064623,54.294153 80.003906,51.103516 a 0.67796822,0.67796822 0 0 0 -0.0078,-0.0098 c -1.443716,-1.448539 -2.941394,-2.769443 -4.056641,-4.3125 0.171617,-0.551324 0.723791,-1.138262 1.216797,-2.009766 3.944965,-5.747685 7.884868,-11.577102 11,-17.892578 a 0.67796822,0.67796822 0 0 0 0.0059,-0.01172 c 0.933762,-1.98585 1.969645,-4.265912 1.660157,-6.740235 a 0.67796822,0.67796822 0 0 0 -0.0059,-0.04102 c -0.427072,-2.294332 -2.591338,-3.81027 -4.808594,-3.853516 -2.496314,-0.174418 -4.950646,-0.0023 -7.34375,-0.06641 a 0.67796822,0.67796822 0 0 0 -0.03711,0 c -0.898055,0.02475 -1.849565,-0.02727 -2.828125,-0.01172 -0.978241,0.01555 -1.985829,0.09963 -2.986328,0.421875 a 0.67796822,0.67796822 0 0 0 -0.01758,0.0059 c -2.182642,0.768843 -3.660141,2.679257 -4.371094,4.72461 l 0.02148,-0.05469 c -2.84498,6.33846 -6.184953,12.506437 -10.660156,17.777344 -5.91e-4,6.97e-4 -0.0014,0.0013 -0.002,0.002 -0.487135,0.554684 -1.064239,0.981364 -1.611328,1.453125 -0.03799,-3.782612 -0.0055,-7.625502 -0.02539,-11.443359 a 0.67796822,0.67796822 0 0 0 0,-0.0039 c -0.03128,-2.691698 0.05626,-5.420049 -0.08398,-8.164062 a 0.67796822,0.67796822 0 0 0 -0.0039,-0.04297 C 54.817149,18.741417 53.35861,16.632436 51.0625,16.314453 49.867521,16.081815 48.707291,16.151716 47.626953,16.175781 h -0.01367 c -4.618837,0.01182 -9.261239,-0.08434 -13.910156,0.05664 a 0.67796822,0.67796822 0 0 0 -0.06055,0.0039 c -3.041615,0.366761 -5.161196,3.803074 -3.875,6.66211 0.415942,1.026359 1.087872,1.826484 1.673828,2.578124 0.589468,0.756146 1.086268,1.456243 1.291016,2.253907 a 0.67796822,0.67796822 0 0 0 0.0098,0.03516 c 0.807653,2.559889 0.366781,5.415448 0.486328,8.347656 -0.01532,2.843002 0.0054,5.665115 -0.05078,8.478516 -1.7388,-1.684029 -3.091742,-3.827242 -4.486328,-5.951172 -3.531604,-5.665494 -6.159665,-11.862153 -8.378906,-18.1875 a 0.67796822,0.67796822 0 0 0 -0.0098,-0.02539 c -0.867913,-2.182187 -2.859577,-4.119018 -5.419922,-4.189453 -2.462014,-0.186284 -4.880658,-0.0098 -7.2343745,-0.07617 a 0.67796822,0.67796822 0 0 0 -0.044922,0 c -0.8212404,0.03176 -1.6796546,-0.01006 -2.5625,-0.01367 z m 30.2011724,5.404296 c 4.819437,0.07085 9.628584,-0.02817 14.412109,0.05859 0.02744,0.105762 0.0726,0.167524 0.07422,0.345703 0.0029,0.316971 -0.04483,0.718278 0.01172,1.173828 l -0.0059,-0.08008 c 0.02805,6.467126 -0.0628,12.947624 0.05469,19.435547 a 0.67796822,0.67796822 0 0 0 0.002,0.04883 c 0.093,1.036018 0.498523,2.087273 1.183593,2.923828 0.68469,0.836091 1.691766,1.459706 2.896485,1.47461 6.7e-4,8e-6 0.0013,-8e-6 0.002,0 2.747071,0.05031 4.691244,-2.004547 6.259765,-3.5625 a 0.67796822,0.67796822 0 0 0 0.01953,-0.01953 c 3.938956,-4.249948 6.893828,-9.248858 9.564453,-14.277343 1.221588,-2.304589 2.227601,-4.684217 3.335937,-6.970703 0.327025,-0.379681 0.731807,-0.502372 1.332032,-0.53711 0.617167,-0.03572 1.362082,0.06025 2.121093,0.0078 l -0.05273,0.002 c 2.670478,0.02432 5.316084,-0.04007 7.929687,0.06836 -0.03534,0.105192 -0.0817,0.197335 -0.07031,0.388672 l 0.02344,-0.226562 c -0.901635,3.162704 -2.796689,6.005273 -4.496094,8.986328 -2.691016,4.480545 -5.723711,8.773015 -8.626953,13.171875 a 0.67796822,0.67796822 0 0 0 -0.01758,0.0293 c -0.9688,1.643814 -1.148501,3.848108 0.04883,5.519531 1.645111,2.638757 4.119891,4.403299 5.972656,6.503906 a 0.67796822,0.67796822 0 0 0 0.0098,0.01172 c 2.941285,3.181451 5.798,6.441738 8.123047,10.042969 0.427563,0.779186 0.781464,1.534278 0.865235,2.234375 -0.06356,0.03139 -0.08011,0.07889 -0.267578,0.08789 -0.312044,0.01498 -0.750346,-0.05087 -1.259766,0.04492 l 0.128906,-0.01172 c -2.978601,-0.01891 -5.949012,0.02007 -8.90625,-0.01758 a 0.67796822,0.67796822 0 0 0 -0.0332,0 c -0.760343,0.02904 -1.370233,-0.278386 -1.996094,-0.796875 -0.62586,-0.518488 -1.21817,-1.238717 -1.845703,-1.892578 l 0.01172,0.0098 C 68.097856,61.433828 64.145897,56.801518 58.853516,53.800781 a 0.67796822,0.67796822 0 0 0 -0.02148,-0.01172 c -2.133186,-1.112414 -5.001019,-1.617039 -7.24414,-0.09961 a 0.67796822,0.67796822 0 0 0 -0.03906,0.02734 c -0.950343,0.745263 -1.417842,1.789465 -1.630859,2.828125 -0.213018,1.03866 -0.196751,2.098589 -0.183594,3.019531 -0.02528,2.791773 0.04787,5.565363 -0.05469,8.304688 -0.08888,0.122593 -0.18715,0.206432 -0.46875,0.269531 -0.308183,0.06906 -0.732521,0.0913 -1.171876,0.175781 -0.0026,2.66e-4 -0.0052,-2.65e-4 -0.0078,0 -3.065427,0.312879 -6.182763,-0.01406 -9.113281,-0.820312 a 0.67796822,0.67796822 0 0 0 -0.002,0 c -7.634476,-2.079694 -14.145048,-7.277191 -19,-13.498047 -3.653729,-4.872031 -6.943585,-10.02513 -9.804688,-15.400391 l -0.0039,-0.0059 C 7.5851722,33.731287 5.3470695,28.703427 4.0371094,23.427734 3.9328293,22.727986 3.8344954,22.183471 3.8144531,21.689453 c 0.7388423,-0.126429 1.6321146,-0.0363 2.6777344,-0.113281 l -0.050781,0.002 c 2.7289458,0.01089 5.4385198,-0.05465 8.1171878,0.06641 0.324871,0.123628 0.519529,0.349944 0.71289,0.777344 0.20172,0.445875 0.347065,1.038342 0.603516,1.611328 2.603076,7.248622 5.890402,14.33162 10.347656,20.683594 a 0.67796822,0.67796822 0 0 0 0.0059,0.0098 c 1.649442,2.266228 3.531667,4.736849 6.341796,5.998047 a 0.67796822,0.67796822 0 0 0 0.0332,0.01367 c 1.069264,0.414556 2.269459,0.370251 3.310546,-0.05859 1.036922,-0.427129 1.931914,-1.274837 2.263672,-2.462891 0.784884,-2.389743 0.353538,-4.794627 0.460938,-6.941406 a 0.67796822,0.67796822 0 0 0 0,-0.03906 c -0.03511,-3.965069 0.08936,-7.961993 -0.08594,-11.974609 a 0.67796822,0.67796822 0 0 0 -0.002,-0.0332 c -0.264208,-2.83586 -1.462115,-5.523063 -3.308593,-7.675782 z" />
</g>
</svg>
