<?xml version="1.0" standalone="no"?>
<!DOCTYPE svg PUBLIC "-//W3C//DTD SVG 20010904//EN"
 "http://www.w3.org/TR/2001/REC-SVG-20010904/DTD/svg10.dtd">
<svg version="1.0" xmlns="http://www.w3.org/2000/svg"
 width="192.000000pt" height="192.000000pt" viewBox="0 0 192.000000 192.000000"
 preserveAspectRatio="xMidYMid meet">
<metadata>
Created by potrace 1.14, written by Peter Selinger 2001-2017
</metadata>
<g transform="translate(0.000000,192.000000) scale(0.100000,-0.100000)"
fill="#000000" stroke="none">
<path d="M828 1865 c-2 -3 -22 -7 -43 -11 -346 -55 -653 -362 -721 -723 -91
-485 213 -952 695 -1068 89 -21 271 -25 358 -7 37 8 76 16 85 17 10 2 21 6 24
10 4 4 14 7 21 7 23 0 157 65 216 104 188 125 344 347 383 545 3 14 7 28 10
32 6 10 17 128 17 184 0 64 -12 171 -23 199 -5 14 -8 26 -5 26 9 0 -48 149
-81 209 -125 230 -333 391 -584 454 -73 19 -124 24 -221 25 -70 1 -129 -1
-131 -3z"/>
</g>
</svg>
